<svg width="139" height="21" viewBox="0 0 139 21" fill="none" xmlns="http://www.w3.org/2000/svg">
<path d="M13.536 11.64L14.016 10.536C15.376 10.584 16.512 10.8 17.424 11.184C18.336 11.568 19.016 12.104 19.464 12.792C19.928 13.464 20.16 14.272 20.16 15.216C20.16 16.192 19.936 17.072 19.488 17.856C19.056 18.64 18.392 19.256 17.496 19.704C16.6 20.152 15.48 20.376 14.136 20.376H3.91304e-05L1.36804 11.136L3.91304e-05 2.37598H13.632C15.296 2.37598 16.6 2.76798 17.544 3.55198C18.488 4.31998 18.96 5.39198 18.96 6.76798C18.96 7.55198 18.784 8.28798 18.432 8.97598C18.08 9.66398 17.504 10.248 16.704 10.728C15.92 11.192 14.864 11.496 13.536 11.64ZM6.04804 19.032L3.69604 16.272H12.168C12.696 16.272 13.112 16.136 13.416 15.864C13.72 15.576 13.872 15.192 13.872 14.712C13.872 14.28 13.72 13.912 13.416 13.608C13.128 13.304 12.696 13.152 12.12 13.152H5.01604V9.11998H11.208C11.624 9.11998 11.968 8.99198 12.24 8.73598C12.528 8.47998 12.672 8.15198 12.672 7.75198C12.672 7.38398 12.544 7.07998 12.288 6.83998C12.032 6.59998 11.672 6.47998 11.208 6.47998H3.72004L6.04804 3.71998L7.27204 11.136L6.04804 19.032ZM21.8249 6.28798L24.8729 6.91198L27.9209 6.28798V20.376H21.8249V6.28798ZM24.8729 5.56798C23.8489 5.56798 23.0249 5.31998 22.4009 4.82398C21.7769 4.32798 21.4649 3.64798 21.4649 2.78398C21.4649 1.91998 21.7769 1.23998 22.4009 0.743976C23.0249 0.247976 23.8489 -2.43187e-05 24.8729 -2.43187e-05C25.9129 -2.43187e-05 26.7369 0.247976 27.3449 0.743976C27.9689 1.23998 28.2809 1.91998 28.2809 2.78398C28.2809 3.64798 27.9689 4.32798 27.3449 4.82398C26.7369 5.31998 25.9129 5.56798 24.8729 5.56798ZM42.5035 20.376L41.8075 15.24L42.7435 13.536L41.8075 11.232L43.0555 1.89598H49.3915L47.8555 12.984L48.8395 20.376H42.5035ZM43.6555 13.488C43.4955 14.96 43.0955 16.248 42.4555 17.352C41.8315 18.44 41.0075 19.288 39.9835 19.896C38.9755 20.504 37.8155 20.808 36.5035 20.808C35.1595 20.808 33.9755 20.504 32.9515 19.896C31.9435 19.288 31.1515 18.432 30.5755 17.328C30.0155 16.224 29.7355 14.944 29.7355 13.488C29.7355 12.016 30.0155 10.728 30.5755 9.62398C31.1515 8.51998 31.9435 7.66398 32.9515 7.05598C33.9755 6.44798 35.1595 6.14398 36.5035 6.14398C37.8155 6.14398 38.9755 6.44798 39.9835 7.05598C41.0075 7.64798 41.8395 8.49598 42.4795 9.59998C43.1195 10.688 43.5115 11.984 43.6555 13.488ZM35.8795 13.488C35.8795 14.016 35.9835 14.488 36.1915 14.904C36.4155 15.304 36.7195 15.624 37.1035 15.864C37.5035 16.104 37.9595 16.224 38.4715 16.224C38.9995 16.224 39.5115 16.104 40.0075 15.864C40.5035 15.624 40.9355 15.304 41.3035 14.904C41.6875 14.488 41.9515 14.016 42.0955 13.488C41.9515 12.96 41.6875 12.488 41.3035 12.072C40.9355 11.656 40.5035 11.328 40.0075 11.088C39.5115 10.848 38.9995 10.728 38.4715 10.728C37.9595 10.728 37.5035 10.848 37.1035 11.088C36.7195 11.328 36.4155 11.656 36.1915 12.072C35.9835 12.488 35.8795 12.96 35.8795 13.488ZM62.8829 17.544H60.3389L66.7469 2.37598H73.2269L65.0669 20.376H58.0109L49.8509 2.37598H56.4749L62.8829 17.544ZM79.9832 20.808C78.2712 20.808 76.7352 20.504 75.3752 19.896C74.0312 19.272 72.9672 18.408 72.1832 17.304C71.3992 16.184 71.0072 14.888 71.0072 13.416C71.0072 11.96 71.3832 10.688 72.1352 9.59998C72.9032 8.51198 73.9432 7.66398 75.2552 7.05598C76.5672 6.44798 78.0392 6.14398 79.6712 6.14398C81.3832 6.14398 82.8392 6.49598 84.0392 7.19998C85.2392 7.90398 86.1592 8.90398 86.7992 10.2C87.4392 11.48 87.7592 13 87.7592 14.76H75.9992V11.952H84.2072L82.5752 12.864C82.4952 12.24 82.3352 11.72 82.0952 11.304C81.8552 10.888 81.5352 10.576 81.1352 10.368C80.7512 10.144 80.2872 10.032 79.7432 10.032C79.1352 10.032 78.6152 10.168 78.1832 10.44C77.7672 10.712 77.4472 11.088 77.2232 11.568C77.0152 12.032 76.9112 12.56 76.9112 13.152C76.9112 13.92 77.0792 14.568 77.4152 15.096C77.7672 15.608 78.2952 16 78.9992 16.272C79.7032 16.544 80.5912 16.68 81.6632 16.68C82.7032 16.68 83.7112 16.552 84.6872 16.296C85.6792 16.024 86.5912 15.64 87.4232 15.144V18.6C86.3992 19.32 85.2312 19.872 83.9192 20.256C82.6232 20.624 81.3112 20.808 79.9832 20.808ZM88.794 6.57598H95.034L95.85 11.448V20.376H89.754V11.376L88.794 6.57598ZM101.946 6.28798V11.448C101.402 11.352 100.914 11.288 100.482 11.256C100.05 11.208 99.666 11.184 99.33 11.184C98.722 11.184 98.154 11.296 97.626 11.52C97.098 11.728 96.666 12.112 96.33 12.672C96.01 13.232 95.85 14.032 95.85 15.072L94.77 13.728C94.93 12.736 95.13 11.792 95.37 10.896C95.626 9.98398 95.962 9.17598 96.378 8.47198C96.794 7.75198 97.322 7.18398 97.962 6.76798C98.602 6.35198 99.402 6.14398 100.362 6.14398C100.602 6.14398 100.85 6.15998 101.106 6.19198C101.362 6.20798 101.642 6.23998 101.946 6.28798ZM120.406 15.672C120.406 16.824 120.046 17.784 119.326 18.552C118.606 19.304 117.598 19.872 116.302 20.256C115.022 20.624 113.518 20.808 111.79 20.808C110.014 20.808 108.446 20.6 107.086 20.184C105.742 19.752 104.678 19.152 103.894 18.384C103.126 17.616 102.718 16.72 102.67 15.696H108.862C108.974 16 109.166 16.256 109.438 16.464C109.71 16.656 110.062 16.808 110.494 16.92C110.942 17.016 111.486 17.064 112.126 17.064C112.894 17.064 113.478 16.992 113.878 16.848C114.278 16.688 114.478 16.472 114.478 16.2C114.478 15.928 114.31 15.736 113.974 15.624C113.638 15.512 113.094 15.432 112.342 15.384L110.086 15.24C108.342 15.128 106.95 14.904 105.91 14.568C104.886 14.216 104.15 13.744 103.702 13.152C103.254 12.56 103.03 11.848 103.03 11.016C103.03 9.91198 103.374 8.99998 104.062 8.27998C104.766 7.55998 105.742 7.02398 106.99 6.67198C108.238 6.31998 109.694 6.14398 111.358 6.14398C112.99 6.14398 114.438 6.35198 115.702 6.76798C116.966 7.16798 117.982 7.73598 118.75 8.47198C119.518 9.20798 119.966 10.064 120.094 11.04H113.902C113.822 10.752 113.662 10.504 113.422 10.296C113.182 10.088 112.87 9.92798 112.486 9.81598C112.102 9.70398 111.638 9.64798 111.094 9.64798C110.358 9.64798 109.822 9.73598 109.486 9.91198C109.15 10.072 108.982 10.288 108.982 10.56C108.982 10.816 109.086 11 109.294 11.112C109.502 11.208 109.91 11.272 110.518 11.304L113.542 11.496C115.27 11.592 116.63 11.816 117.622 12.168C118.63 12.504 119.342 12.96 119.758 13.536C120.19 14.112 120.406 14.824 120.406 15.672ZM130.608 20.808C128.896 20.808 127.36 20.504 126 19.896C124.656 19.272 123.592 18.408 122.808 17.304C122.024 16.184 121.632 14.888 121.632 13.416C121.632 11.96 122.008 10.688 122.76 9.59998C123.528 8.51198 124.568 7.66398 125.88 7.05598C127.192 6.44798 128.664 6.14398 130.296 6.14398C132.008 6.14398 133.464 6.49598 134.664 7.19998C135.864 7.90398 136.784 8.90398 137.424 10.2C138.064 11.48 138.384 13 138.384 14.76H126.624V11.952H134.832L133.2 12.864C133.12 12.24 132.96 11.72 132.72 11.304C132.48 10.888 132.16 10.576 131.76 10.368C131.376 10.144 130.912 10.032 130.368 10.032C129.76 10.032 129.24 10.168 128.808 10.44C128.392 10.712 128.072 11.088 127.848 11.568C127.64 12.032 127.536 12.56 127.536 13.152C127.536 13.92 127.704 14.568 128.04 15.096C128.392 15.608 128.92 16 129.624 16.272C130.328 16.544 131.216 16.68 132.288 16.68C133.328 16.68 134.336 16.552 135.312 16.296C136.304 16.024 137.216 15.64 138.048 15.144V18.6C137.024 19.32 135.856 19.872 134.544 20.256C133.248 20.624 131.936 20.808 130.608 20.808Z" fill="white"/>
</svg>
