<svg width="330" height="330" viewBox="0 0 330 330" fill="none" xmlns="http://www.w3.org/2000/svg">
<rect width="330" height="330" rx="29.4643" fill="#D8D8FF"/>
<path d="M170.442 135.739C170.442 133.363 168.513 131.434 166.137 131.434C163.761 131.434 161.832 133.363 161.832 135.739L161.842 161.842L135.739 161.851C133.363 161.851 131.434 163.78 131.434 166.156C131.434 168.532 133.363 170.461 135.739 170.461L161.842 170.451L161.851 196.554C161.851 198.93 163.78 200.859 166.156 200.859C168.532 200.859 170.461 198.93 170.461 196.554L170.451 170.451L196.554 170.442C198.93 170.442 200.859 168.513 200.859 166.137C200.859 163.761 198.93 161.832 196.554 161.832L170.451 161.842L170.442 135.739Z" fill="#9595FF"/>
</svg>
